<?xml version="1.0" encoding="UTF-8" standalone="no"?>
<!-- Created with Inkscape (http://www.inkscape.org/) -->

<svg
   xmlns:dc="http://purl.org/dc/elements/1.1/"
   xmlns:cc="http://creativecommons.org/ns#"
   xmlns:rdf="http://www.w3.org/1999/02/22-rdf-syntax-ns#"
   xmlns:svg="http://www.w3.org/2000/svg"
   xmlns="http://www.w3.org/2000/svg"
   xmlns:sodipodi="http://sodipodi.sourceforge.net/DTD/sodipodi-0.dtd"
   xmlns:inkscape="http://www.inkscape.org/namespaces/inkscape"
   width="96.761986mm"
   height="96.761429mm"
   viewBox="0 0 342.85743 342.85545"
   id="svg2"
   version="1.1"
   inkscape:version="0.91 r13725"
   sodipodi:docname="default-artist.svg"
   inkscape:export-filename="/home/mk/CODE/kalama.js.org/Kalama/components/default-artist.png"
   inkscape:export-xdpi="599"
   inkscape:export-ydpi="599">
  <defs
     id="defs4" />
  <sodipodi:namedview
     id="base"
     pagecolor="#ffffff"
     bordercolor="#666666"
     borderopacity="1.0"
     inkscape:pageopacity="0.0"
     inkscape:pageshadow="2"
     inkscape:zoom="0.98994949"
     inkscape:cx="-127.12641"
     inkscape:cy="129.71532"
     inkscape:document-units="px"
     inkscape:current-layer="layer1"
     showgrid="false"
     fit-margin-top="0"
     fit-margin-left="0"
     fit-margin-right="0"
     fit-margin-bottom="0" />
  <metadata
     id="metadata7">
    <rdf:RDF>
      <cc:Work
         rdf:about="">
        <dc:format>image/svg+xml</dc:format>
        <dc:type
           rdf:resource="http://purl.org/dc/dcmitype/StillImage" />
        <dc:title></dc:title>
      </cc:Work>
    </rdf:RDF>
  </metadata>
  <g
     inkscape:label="Layer 1"
     inkscape:groupmode="layer"
     id="layer1"
     transform="translate(-14.285156,-149.50586)">
    <path
       style="color:#000000;clip-rule:nonzero;display:inline;overflow:visible;visibility:visible;opacity:1;isolation:auto;mix-blend-mode:normal;color-interpolation:sRGB;color-interpolation-filters:linearRGB;solid-color:#000000;solid-opacity:1;fill:#cccccc;fill-opacity:1;fill-rule:nonzero;color-rendering:auto;image-rendering:auto;shape-rendering:auto;text-rendering:auto;enable-background:accumulate"
       d="m 14.285156,149.50586 0,342.85547 5.494141,0 a 165.15994,165.15994 0 0 1 -0.08203,-1.64453 165.15994,165.15994 0 0 1 123.136713,-159.625 82.327431,82.327431 0 0 1 -39.44726,-70.15821 82.327431,82.327431 0 0 1 82.32812,-82.32812 82.327431,82.327431 0 0 1 82.32618,82.32812 82.327431,82.327431 0 0 1 -40.0625,70.54688 165.15994,165.15994 0 0 1 122.03906,159.23633 165.15994,165.15994 0 0 1 -0.0586,1.64453 l 7.1836,0 0,-342.85547 -342.857423,0 z"
       id="rect4136"
       inkscape:connector-curvature="0" />
  </g>
</svg>
